<?xml version="1.0" standalone="no"?><!DOCTYPE svg PUBLIC "-//W3C//DTD SVG 1.1//EN" "http://www.w3.org/Graphics/SVG/1.1/DTD/svg11.dtd"><svg t="1685363607854" class="icon" viewBox="0 0 1300 1024" version="1.1" xmlns="http://www.w3.org/2000/svg" p-id="41810" width="81.25" height="64" xmlns:xlink="http://www.w3.org/1999/xlink"><path d="M669.244501 79.463845l161.838956 549.528606 157.484698-185.658243v265.797531L1233.495591 551.731922 1035.395838 1024H302.834907L45.149912 542.059005l281.943139 167.072734 25.441072-265.797531 146.872664 185.656438L669.244501 79.463845zM421.729072 801.044317l-36.685206 65.301221 36.685206 65.833989 29.054872-65.568508-29.054872-65.566702z m501.80515 0l-36.685206 65.301221 36.685206 65.833989 29.054871-65.568508-29.054871-65.566702z m-251.878716-32.784254l-64.197756 81.627429 64.197756 82.292035 50.846025-81.959732-50.846025-81.959732z" fill="#FFBA00" p-id="41811"></path><path d="M1249.749559 539.992945m-50.567901 0a50.567901 50.567901 0 1 0 101.135802 0 50.567901 50.567901 0 1 0-101.135802 0Z" fill="#FFBA00" p-id="41812"></path><path d="M675.442681 50.567901m-50.567901 0a50.567901 50.567901 0 1 0 101.135802 0 50.567901 50.567901 0 1 0-101.135802 0Z" fill="#FFBA00" p-id="41813"></path><path d="M50.567901 539.992945m-50.567901 0a50.567901 50.567901 0 1 0 101.135802 0 50.567901 50.567901 0 1 0-101.135802 0Z" fill="#FFBA00" p-id="41814"></path><path d="M343.13933 409.961199m-50.567901 0a50.567901 50.567901 0 1 0 101.135802 0 50.567901 50.567901 0 1 0-101.135802 0Z" fill="#FFBA00" p-id="41815"></path><path d="M984.268078 409.961199m-50.567902 0a50.567901 50.567901 0 1 0 101.135803 0 50.567901 50.567901 0 1 0-101.135803 0Z" fill="#FFBA00" p-id="41816"></path></svg>