<?xml version="1.0" standalone="no"?><!DOCTYPE svg PUBLIC "-//W3C//DTD SVG 1.1//EN" "http://www.w3.org/Graphics/SVG/1.1/DTD/svg11.dtd"><svg t="1685532892320" class="icon" viewBox="0 0 1024 1024" version="1.1" xmlns="http://www.w3.org/2000/svg" p-id="22444" width="64" height="64" xmlns:xlink="http://www.w3.org/1999/xlink"><path d="M999.820288 494.521958c-6.341734-45.699789-85.663437-66.025779-117.680947-72.025395-20.485427-3.843584-85.725901-5.638451-191.326208-4.65705-6.959821-12.159898-24.822374-43.276595-47.340134-82.359808 11.662029-10.474598 44.619981-40.452301 55.886029-54.631219 20.643021-25.983795-7.100006-38.269645-26.34711-38.232781-19.533619 0.0256-74.446541 0-83.189043 0-41.183642-71.003136-82.377523-141.403546-97.99168-165.938278-35.388416-55.611597-104.157389-29.318758-101.114982 0 2.739507 26.371584 71.70601 292.381082 85.544755 345.573581-2.951373 0.09001-5.731738 0.15145-8.702566 0.245555-80.854733 2.394522-149.065011 11.654451-204.360602 22.78697-16.956928-18.16064-72.931942-78.32279-106.083328-115.815731-40.314778-45.595443-62.112154-10.207437-59.662234 5.054157 7.030374 43.798528 34.860339 137.783091 37.156762 145.493709-15.287808 3.8016-24.915456 9.184154-25.00649 15.181722-0.054272 0.023552-0.101274 0.063488-0.153498 0.09001 0.052224 0.0256 0.106394 0.075674 0.155546 0.107418 0.114586 5.988352 9.735066 11.362816 25.005466 15.156224-2.28823 7.69833-30.126387 101.695181-37.156762 145.497805-2.44992 15.259546 19.347456 50.6496 59.662234 5.056205 33.151386-37.497037 89.125478-97.658163 106.083328-115.817779 55.29559 11.136614 123.505869 20.394496 204.360602 22.789018 2.970829 0.092058 5.751194 0.153498 8.702566 0.243507-13.838746 53.193523-82.805248 319.204045-85.544755 345.573581-3.042406 29.32183 65.726566 55.612621 101.114982 0 15.615283-24.531763 56.808141-94.933094 97.99168-165.935206 8.742502 0 63.655322-0.027648 83.189043 0 19.248128 0.03584 46.990131-12.25001 26.34711-38.233805-11.267072-14.177894-44.224-44.153651-55.886029-54.635315 22.51776-39.081062 40.380314-70.196736 47.340134-82.354688 105.600307 0.979354 170.840781-0.817664 191.326208-4.659098C914.156851 562.076467 995.099648 537.064858 999.820288 494.521958" fill="#1296db" p-id="22445"></path></svg>