<?xml version="1.0" standalone="no"?><!DOCTYPE svg PUBLIC "-//W3C//DTD SVG 1.1//EN" "http://www.w3.org/Graphics/SVG/1.1/DTD/svg11.dtd"><svg t="1685360510806" class="icon" viewBox="0 0 1228 1024" version="1.1" xmlns="http://www.w3.org/2000/svg" p-id="21898" width="57.5625" height="48" xmlns:xlink="http://www.w3.org/1999/xlink"><path d="M117.628792 915.145448c52.957531-48.288421 171.036851-8.641948 262.371184-11.508945a748.040479 748.040479 0 0 1-94.201331-61.435651c-36.287991 9.420133-137.165329 22.649276-262.494055-69.62707 69.217499-34.363007 165.302857 42.349642 251.845209 61.230865a566.477653 566.477653 0 0 1-87.730108-86.542353c-14.253071 3.645182-112.263412 21.379606-179.965499-159.732691 72.207368 15.563698 100.181067 116.23625 177.917644 157.357179a425.953842 425.953842 0 0 1-80.357831-159.241206C77.81849 582.328051 8.437163 559.555903 0 413.871498c54.841557 25.884887 56.234099 106.488461 101.737437 158.422064-8.19142-37.844361-32.192281-66.186674-29.611983-106.734204a257.62016 257.62016 0 0 1 69.381327-142.489751c31.78271 77.449877-60.821294 155.186453-28.66997 251.189895-0.819142-36.16512 18.471652-102.392751 152.237542-153.015726-9.870661 70.364298-109.068758 98.788526-145.233878 174.108633a455.893483 455.893483 0 0 0 62.213836 114.679881c-12.901487-35.714591-20.47855-112.181498 93.013574-198.355237 13.024358 70.569084-71.142483 130.612193-81.9142 212.976921a558.982504 558.982504 0 0 0 82.692385 82.938128c-21.707263-26.867858-50.950633-94.201331 39.605516-217.809859 31.20931 63.811162-39.154988 146.053019-25.598188 228.950191a742.224571 742.224571 0 0 0 101.860309 65.777103c-35.100235-29.652941-80.071131-112.918725-15.932312-256.596233 45.421424 61.763307-12.28713 188.402661 38.991159 268.514749a926.859178 926.859178 0 0 0 92.399218 39.810301c-32.76568-24.57426-70.118556-81.9142-46.568223-212.56735 60.084066 47.428322 32.192281 150.926914 81.914201 224.813523a1082.782859 1082.782859 0 0 0 200.075434 45.052811c-0.819142 4.09571-1.597327 14.416899-2.989868 19.987064a965.440767 965.440767 0 0 1-210.929066-45.626209c-31.659838 25.393402-115.376151 75.156279-262.903627 47.715022 45.667167-59.551624 162.517774-34.60875 248.363856-52.793703a908.018912 908.018912 0 0 1-118.77559-51.237332c-37.639575 19.249837-129.506351 50.172448-277.812011 3.276568" fill="#FEBD81" p-id="21899"></path><path d="M1111.370915 915.145448c-52.916574-48.288421-170.62728-8.641948-261.838742-11.508945a746.279323 746.279323 0 0 0 94.201331-61.435651c36.16512 9.420133 136.755758 22.649276 261.879699-69.62707-69.094628-34.363007-164.934243 42.349642-251.230853 61.230865a565.207983 565.207983 0 0 0 87.443409-86.542353c14.253071 3.645182 112.058626 21.379606 179.596884-159.732691-72.043539 15.563698-99.976282 116.23625-177.549029 157.357179a426.240542 426.240542 0 0 0 80.194002-159.241206c27.031686-3.276568 96.249186-26.171587 104.604434-171.733121-54.636772 25.884887-56.029313 106.488461-101.450737 158.422064 8.19142-37.844361 32.192281-66.186674 29.530069-106.734204a257.702075 257.702075 0 0 0-69.176542-142.489751c-31.823667 77.449877 60.575551 155.186453 28.66997 251.189896 0.860099-36.16512-18.430695-102.392751-151.950842-153.015727 9.993532 70.364298 108.90493 98.788526 144.988135 174.108633a456.384968 456.384968 0 0 1-62.131921 114.679881c12.983401-35.714591 20.47855-112.181498-92.767832-198.355237-13.024358 70.569084 70.896741 130.612193 81.463672 212.976922a561.767587 561.767587 0 0 1-82.446643 82.938128c21.584392-26.867858 50.786804-94.201331-39.564559-217.809859-31.168353 63.811162 39.114031 146.053019 25.516274 228.95019a732.353909 732.353909 0 0 1-101.614566 65.777103c35.059278-29.652941 79.907303-112.918725 15.891355-256.596233-45.298553 61.763307 12.28713 188.402661-38.868288 268.514749a915.841718 915.841718 0 0 1-92.23539 39.810301c32.76568-24.57426 70.036641-81.9142 46.527266-212.56735-60.002152 47.428322-32.192281 150.926914-81.9142 224.813523a1078.973849 1078.973849 0 0 1-199.706821 45.052811c0.819142 4.09571 1.679241 14.416899 2.989868 19.987065a960.853572 960.853572 0 0 0 210.478538-45.62621c31.659838 25.393402 115.171366 75.156279 262.125442 47.715022-45.544295-59.551624-162.190117-34.60875-247.790457-52.793703a901.301948 901.301948 0 0 0 118.406977-51.237332c37.598618 19.249837 129.260608 50.172448 277.279569 3.276568" fill="#FEBD81" p-id="21900"></path><path d="M593.468382 262.084484h30.144426a93.914631 93.914631 0 0 0 69.627071-24.57426 82.282814 82.282814 0 0 0 24.57426-61.968092 88.426379 88.426379 0 0 0-25.557231-63.196806 90.760934 90.760934 0 0 0-63.606376-24.57426 80.972187 80.972187 0 0 0-51.073504 18.021124 90.638063 90.638063 0 0 0-32.765681 55.660699h-87.484366a178.204343 178.204343 0 0 1 54.841557-114.311267 159.732691 159.732691 0 0 1 113.041597-46.854922 172.429392 172.429392 0 0 1 180.211241 173.740019 187.419691 187.419691 0 0 1-12.57383 67.824958 142.162095 142.162095 0 0 1-52.343174 58.200039 152.278499 152.278499 0 0 1 55.6607 60.288852 172.961834 172.961834 0 0 1 16.38284 73.72278 179.678799 179.678799 0 0 1-53.244231 135.158431 183.692595 183.692595 0 0 1-132.332391 51.524032 167.596454 167.596454 0 0 1-110.58417-40.178915 191.187744 191.187744 0 0 1-62.377664-116.400079h87.484366a123.4447 123.4447 0 0 0 33.05238 49.43522 82.897171 82.897171 0 0 0 57.790469 19.659408 88.098723 88.098723 0 0 0 64.876046-26.376372 93.259317 93.259317 0 0 0 27.646043-70.323342 97.395984 97.395984 0 0 0-27.646043-72.043539 94.201331 94.201331 0 0 0-66.964859-24.57426h-36.86139V262.084484z" fill="#FE6B07" p-id="21901"></path></svg>